 <svg class="svg-farnosova"  xmlns="http://www.w3.org/2000/svg" xmlns:xlink="http://www.w3.org/1999/xlink" x="0px" y="0px" viewBox="0 0 999.9 88" style="enable-background:new 0 0 999.9 88;" xml:space="preserve">
        <path style="fill:#fff" d="M1000.9 85c-9.8 1.1-18.5-1.1-26.9-6.7-11.8-7.7-24.2-14.4-36.9-21.8-3.2 6.9-6.5 13.2-9.2 19.8-3.6 8.7-5.1 9.9-14.5 8.9-1.1-.1-2.3-.1-4.3-.2 5.5-11.8 10.7-23.2 16.2-35.1C916.1 44.4 907 39 898 33.6c11.1-.7 22.4-4 32.5 5.1 3-6.3 5.7-12.1 8.4-17.9 1.2-2.6 2.4-5.1 3.6-7.7 3.8-8.3 8.5-11 17.3-8.7 2.6.7 5.3 3.5 6.5 6 11.4 24.1 22.4 48.3 33.6 72.4.2.4.6.8.9 1.2.1.3.1.7.1 1zm-23.5-19.4c-7.7-16.5-14.8-31.8-22.4-48-4.5 9.8-8.6 18.6-12.8 27.7 10.7 6.4 20.9 12.5 31.2 18.6.8.5 1.8.8 4 1.7zM801.2 5c.9-.2 1.3-.4 1.8-.4 11.7-.9 11.7-.9 16.5 9.6 8.1 17.3 16.1 34.7 24.2 52 .8 1.6 1.6 3.2 2.7 5.5 1.7-3.4 3-6.2 4.4-9.1 8-17.2 16.2-34.3 23.8-51.6 2.2-5.1 5-7.4 10.5-6.5 2.1.3 4.2.1 7.2.1-.9 2.2-1.5 3.7-2.2 5.2-11 23.7-22.3 47.2-33 71.1-2.8 6.3-7.9 4.1-12.3 4.9-3.9.7-7.2-.7-9-4.6-11.5-24.9-22.9-49.9-34.4-74.8-.1-.4-.1-.7-.2-1.4zm-59.5-5c-25.1 0-45.5 19.7-45.5 44s20.4 44 45.5 44 45.5-19.7 45.5-44-20.4-44-45.5-44zm0 75.6c-18 0-32.6-14.1-32.6-31.6s14.6-31.6 32.6-31.6 32.6 14.1 32.6 31.6-14.6 31.6-32.6 31.6zm-154.4-2.5c2.3-3.5 4.4-6.8 6.7-10.4 3.9 2 7.6 3.9 11.3 5.7 11.9 5.5 24.2 7 36.9 3.7 2.8-.7 5.6-2.1 8.1-3.7 3.5-2.1 4.5-5.6 3.8-9.5-.7-4-3.3-6.2-7.1-6.7-10.4-1.5-20.8-2.7-31.2-4.1-2.8-.4-5.6-.6-8.4-1.1-8.6-1.7-15.2-5.7-17.1-15.1-1.8-8.6 1.3-18 9.4-22.4 6.1-3.4 13.2-5.6 20.1-6.6 12.9-1.8 25.6 0 37.3 6.1 2.6 1.4 5 3.1 8 5-2.9 3.6-5.4 6.7-8.2 10.2-10.3-5.9-21.3-8.9-33-8.1-4.3.3-8.6 1-12.8 2-4.1 1-6.7 4-6.3 8.4.3 4.1 3.6 5.1 7.1 5.7 13 2.1 25.9 4.3 38.9 6.5 9.2 1.6 15.8 6.3 17.5 15.9 1.8 10.1-.3 19.4-9.3 25-5.3 3.3-11.8 5.7-18 6.6-19.1 2.7-37.5.1-53.7-13.1zM515 0c-25.1 0-45.5 19.7-45.5 44s20.4 44 45.5 44 45.5-19.7 45.5-44S540.1 0 515 0zm0 75.6c-18 0-32.6-14.1-32.6-31.6S497 12.4 515 12.4s32.6 14.1 32.6 31.6-14.5 31.6-32.6 31.6zM374.1 19.8v65h-12.5V4.9c6.1 0 12.2-.4 18.2.2 1.8.2 3.6 2.7 4.9 4.6 13.1 18.6 26.2 37.4 39.2 56.1 1.1 1.6 2.3 3.1 4.6 4.5V5.2h12.8v80c-6 0-11.8.3-17.5-.2-1.8-.2-3.8-2.4-5-4.2-13.4-18.9-26.6-37.9-39.9-56.8-1.1-1.6-2.3-3.1-3.5-4.7-.5.1-.9.3-1.3.5zm-64.2 36.3c5.5 9.1 11.3 18.7 17.6 29-5 0-9.2.3-13.2-.2-1.6-.2-3.3-2-4.3-3.6-4.5-7-8.9-14.1-13-21.3-2-3.4-4.4-4.9-8.4-4.9-9.4.2-18.9.1-29 .1v29.5h-13.1V4.5h13.1c13.5-.1 27-.1 40.5-.2 9.6-.1 18.1 2.4 22.8 11.4 5.1 9.8 5.4 20.1-.6 29.5-2.9 4.3-7.9 7-12.4 10.9zm-49.8-15c14.8 0 29.1.1 43.4 0 4.6 0 7.3-2.8 8.5-7.1 2.3-8.8-1.9-15-11.1-15.3-13-.4-26-.1-38.9-.1-.6 0-1.2.3-1.8.5-.1 7.4-.1 14.5-.1 22zM157 56.3c-3.3 7.3-6.3 13.5-9.1 19.9-3.8 8.9-4.4 9.4-14 8.9-1.3-.1-2.6 0-4.8 0 5.5-12 10.8-23.4 16.3-35.3-9.2-5.5-18.3-10.9-27.3-16.3 11.3-1.1 22.6-3.8 32.7 4.8 4.6-9.8 8.9-19.1 13.3-28.5 3.4-7.3 16.4-8.4 21.1-1.6.9 1.2 1.5 2.6 2.2 3.9 10.6 22.8 21.2 45.5 31.7 68.3.6 1.3 1.1 2.7 1.7 4.3-8.9 1.4-16.7-.3-24.1-4.9-13-7.8-26-15.4-39.7-23.5zm5.3-11c11.5 6.9 22.7 13.5 33.8 20.1.3-.3.5-.6.8-1-7.1-15.3-14.2-30.5-21.8-46.9-4.5 9.8-8.6 18.6-12.8 27.8zM1 36h30.8V5.3h71.8V17H46.1v18.4h39.5v13.4h-40v35.7H32.3V48.9H1V36z"/>
</svg>