<?xml version="1.0" encoding="utf-8"?>
<!-- Generator: Adobe Illustrator 21.0.0, SVG Export Plug-In . SVG Version: 6.00 Build 0)  -->
<svg version="1.1" id="Layer_1" xmlns="http://www.w3.org/2000/svg" xmlns:xlink="http://www.w3.org/1999/xlink" x="0px" y="0px"
	 viewBox="0 0 999.9 88" style="enable-background:new 0 0 999.9 88;" xml:space="preserve">
<g>
	<path d="M1000.9,85c-9.8,1.1-18.5-1.1-26.9-6.7c-11.8-7.7-24.2-14.4-36.9-21.8c-3.2,6.9-6.5,13.2-9.2,19.8
		c-3.6,8.7-5.1,9.9-14.5,8.9c-1.1-0.1-2.3-0.1-4.3-0.2c5.5-11.8,10.7-23.2,16.2-35.1C916.1,44.4,907,39,898,33.6
		c11.1-0.7,22.4-4,32.5,5.1c3-6.3,5.7-12.1,8.4-17.9c1.2-2.6,2.4-5.1,3.6-7.7c3.8-8.3,8.5-11,17.3-8.7c2.6,0.7,5.3,3.5,6.5,6
		c11.4,24.1,22.4,48.3,33.6,72.4c0.2,0.4,0.6,0.8,0.9,1.2C1000.9,84.3,1000.9,84.7,1000.9,85z M977.4,65.6
		c-7.7-16.5-14.8-31.8-22.4-48c-4.5,9.8-8.6,18.6-12.8,27.7c10.7,6.4,20.9,12.5,31.2,18.6C974.2,64.4,975.2,64.7,977.4,65.6z"/>
	<path d="M801.2,5c0.9-0.2,1.3-0.4,1.8-0.4c11.7-0.9,11.7-0.9,16.5,9.6c8.1,17.3,16.1,34.7,24.2,52c0.8,1.6,1.6,3.2,2.7,5.5
		c1.7-3.4,3-6.2,4.4-9.1c8-17.2,16.2-34.3,23.8-51.6c2.2-5.1,5-7.4,10.5-6.5c2.1,0.3,4.2,0.1,7.2,0.1c-0.9,2.2-1.5,3.7-2.2,5.2
		c-11,23.7-22.3,47.2-33,71.1c-2.8,6.3-7.9,4.1-12.3,4.9c-3.9,0.7-7.2-0.7-9-4.6c-11.5-24.9-22.9-49.9-34.4-74.8
		C801.3,6,801.3,5.7,801.2,5z"/>
	<path d="M741.7,0c-25.1,0-45.5,19.7-45.5,44s20.4,44,45.5,44s45.5-19.7,45.5-44S766.8,0,741.7,0z M741.7,75.6
		c-18,0-32.6-14.1-32.6-31.6s14.6-31.6,32.6-31.6s32.6,14.1,32.6,31.6S759.7,75.6,741.7,75.6z"/>
	<path d="M587.3,73.1c2.3-3.5,4.4-6.8,6.7-10.4c3.9,2,7.6,3.9,11.3,5.7c11.9,5.5,24.2,7,36.9,3.7c2.8-0.7,5.6-2.1,8.1-3.7
		c3.5-2.1,4.5-5.6,3.8-9.5c-0.7-4-3.3-6.2-7.1-6.7c-10.4-1.5-20.8-2.7-31.2-4.1c-2.8-0.4-5.6-0.6-8.4-1.1
		c-8.6-1.7-15.2-5.7-17.1-15.1c-1.8-8.6,1.3-18,9.4-22.4c6.1-3.4,13.2-5.6,20.1-6.6c12.9-1.8,25.6,0,37.3,6.1c2.6,1.4,5,3.1,8,5
		c-2.9,3.6-5.4,6.7-8.2,10.2c-10.3-5.9-21.3-8.9-33-8.1c-4.3,0.3-8.6,1-12.8,2c-4.1,1-6.7,4-6.3,8.4c0.3,4.1,3.6,5.1,7.1,5.7
		c13,2.1,25.9,4.3,38.9,6.5c9.2,1.6,15.8,6.3,17.5,15.9c1.8,10.1-0.3,19.4-9.3,25c-5.3,3.3-11.8,5.7-18,6.6
		C621.9,88.9,603.5,86.3,587.3,73.1z"/>
	<path d="M515,0c-25.1,0-45.5,19.7-45.5,44s20.4,44,45.5,44s45.5-19.7,45.5-44S540.1,0,515,0z M515,75.6c-18,0-32.6-14.1-32.6-31.6
		S497,12.4,515,12.4s32.6,14.1,32.6,31.6S533.1,75.6,515,75.6z"/>
	<path d="M374.1,19.8c0,21.6,0,43.2,0,65c-4.3,0-8.3,0-12.5,0c0-26.5,0-52.9,0-79.9c6.1,0,12.2-0.4,18.2,0.2
		c1.8,0.2,3.6,2.7,4.9,4.6c13.1,18.6,26.2,37.4,39.2,56.1c1.1,1.6,2.3,3.1,4.6,4.5c0-21.6,0-43.2,0-65.1c4.7,0,8.6,0,12.8,0
		c0,26.7,0,53.1,0,80c-6,0-11.8,0.3-17.5-0.2c-1.8-0.2-3.8-2.4-5-4.2c-13.4-18.9-26.6-37.9-39.9-56.8c-1.1-1.6-2.3-3.1-3.5-4.7
		C374.9,19.4,374.5,19.6,374.1,19.8z"/>
	<path d="M309.9,56.1c5.5,9.1,11.3,18.7,17.6,29c-5,0-9.2,0.3-13.2-0.2c-1.6-0.2-3.3-2-4.3-3.6c-4.5-7-8.9-14.1-13-21.3
		c-2-3.4-4.4-4.9-8.4-4.9c-9.4,0.2-18.9,0.1-29,0.1c0,10.2,0,19.7,0,29.5c-4.7,0-8.8,0-13.1,0c0-26.7,0-53,0-80.2
		c4.5,0,8.8,0,13.1,0c13.5-0.1,27-0.1,40.5-0.2c9.6-0.1,18.1,2.4,22.8,11.4c5.1,9.8,5.4,20.1-0.6,29.5
		C319.4,49.5,314.4,52.2,309.9,56.1z M260.1,41.1c14.8,0,29.1,0.1,43.4,0c4.6,0,7.3-2.8,8.5-7.1c2.3-8.8-1.9-15-11.1-15.3
		c-13-0.4-26-0.1-38.9-0.1c-0.6,0-1.2,0.3-1.8,0.5C260.1,26.5,260.1,33.6,260.1,41.1z"/>
	<path d="M157,56.3c-3.3,7.3-6.3,13.5-9.1,19.9c-3.8,8.9-4.4,9.4-14,8.9c-1.3-0.1-2.6,0-4.8,0c5.5-12,10.8-23.4,16.3-35.3
		c-9.2-5.5-18.3-10.9-27.3-16.3c11.3-1.1,22.6-3.8,32.7,4.8c4.6-9.8,8.9-19.1,13.3-28.5c3.4-7.3,16.4-8.4,21.1-1.6
		c0.9,1.2,1.5,2.6,2.2,3.9c10.6,22.8,21.2,45.5,31.7,68.3c0.6,1.3,1.1,2.7,1.7,4.3c-8.9,1.4-16.7-0.3-24.1-4.9
		C183.7,72,170.7,64.4,157,56.3z M162.3,45.3c11.5,6.9,22.7,13.5,33.8,20.1c0.3-0.3,0.5-0.6,0.8-1c-7.1-15.3-14.2-30.5-21.8-46.9
		C170.6,27.3,166.5,36.1,162.3,45.3z"/>
	<path d="M1,36c10.1,0,20.2,0,30.8,0c0-10.4,0-20.4,0-30.7c24.1,0,47.8,0,71.8,0c0,3.7,0,7.4,0,11.7c-19.1,0-38.1,0-57.5,0
		c0,6.3,0,12.1,0,18.4c13.1,0,26.1,0,39.5,0c0,4.6,0,8.7,0,13.4c-13,0-26.3,0-40,0c0,12.2,0,23.8,0,35.7c-4.6,0-8.7,0-13.3,0
		c0-11.5,0-23.1,0-35.6c-10.8,0-21,0-31.3,0C1,44.7,1,40.3,1,36z"/>
</g>
</svg>
