<svg xmlns="http://www.w3.org/2000/svg" width="20" height="28" viewBox="0 0 20 28"><path fill="#fff" d="M9.51 15.02c-2.43 0-4.41-2-4.41-4.45a4.44 4.44 0 0 1 4.41-4.45c2.43 0 4.41 2 4.41 4.45a4.44 4.44 0 0 1-4.41 4.45zm0-8.11a3.65 3.65 0 0 0-3.64 3.66 3.66 3.66 0 0 0 3.64 3.67 3.66 3.66 0 0 0 0-7.33zm0 20.1a.4.4 0 0 1-.3-.15c-.37-.45-9.2-11.13-9.2-16.29A9.55 9.55 0 0 1 9.51 1c5.24 0 9.5 4.3 9.5 9.57 0 5.16-8.83 15.84-9.2 16.3a.41.41 0 0 1-.3.13zm0-25.23a8.77 8.77 0 0 0-8.72 8.8c0 4.36 7.16 13.48 8.72 15.42 1.56-1.94 8.72-11.06 8.72-15.43 0-4.85-3.91-8.8-8.72-8.8z"/></svg>