<?xml version="1.0" encoding="utf-8"?>
<!-- Generator: Adobe Illustrator 21.0.0, SVG Export Plug-In . SVG Version: 6.00 Build 0)  -->
<svg version="1.1" id="Слой_1" xmlns="http://www.w3.org/2000/svg" xmlns:xlink="http://www.w3.org/1999/xlink" x="0px" y="0px"
	 viewBox="0 0 29 24" style="enable-background:new 0 0 29 24;" xml:space="preserve">
<style type="text/css">
	.st0{fill:#0C0B0B;}
</style>
<g>
	<g>
		<path class="st0" d="M26.9,0.1c-0.1-0.1-0.4-0.1-0.5,0l-4.7,4.6c-2.3-1.3-4.7-2-7.2-2C4.9,2.8,0.1,12.2,0,12.3c0,0,0,0.1,0,0.2
			v0.1c0,0.1,0,0.1,0,0.2c0.1,0.2,2.2,4.3,6.4,7.1l-3.7,3.7c-0.1,0.1-0.1,0.4,0,0.5C2.9,24,2.9,24,3,24c0.1,0,0.2,0,0.3-0.1
			L26.9,0.6C27.1,0.5,27.1,0.2,26.9,0.1z M11.4,14.9c-0.5-0.7-0.9-1.5-0.9-2.4c0-2.2,1.8-3.9,4-3.9c0.9,0,1.7,0.3,2.4,0.8L11.4,14.9
			z M17.5,8.9c-0.8-0.7-1.9-1.1-3-1.1c-2.6,0-4.7,2.1-4.7,4.6c0,1.1,0.4,2.1,1.1,2.9L7,19.2c-3.8-2.4-5.9-6.1-6.3-6.8
			c0.6-1,5.2-9,13.7-9c2.3,0,4.6,0.6,6.7,1.8L17.5,8.9z M28.9,12.3c-0.1-0.1-1.6-3.1-4.6-5.7c-0.2-0.1-0.4-0.1-0.5,0
			c-0.1,0.2-0.1,0.4,0,0.5c2.6,2.2,4.1,4.8,4.4,5.3c-0.6,1-5.2,9-13.7,9c-1.5,0-3.1-0.3-4.5-0.8c-0.2-0.1-0.4,0-0.5,0.2
			c-0.1,0.2,0,0.4,0.2,0.5c1.5,0.5,3.1,0.8,4.8,0.8c9.6,0,14.4-9.4,14.5-9.5c0,0,0-0.1,0-0.2v-0.1C29,12.4,29,12.3,28.9,12.3z
			 M18.5,12.5c0,2.2-1.8,3.9-4,3.9c-0.1,0-0.3,0-0.4,0c-0.2,0-0.4,0.1-0.4,0.3c0,0.2,0.1,0.4,0.3,0.4c0.2,0,0.3,0,0.5,0
			c2.6,0,4.7-2.1,4.7-4.6c0-0.2-0.2-0.4-0.4-0.4C18.6,12.2,18.5,12.3,18.5,12.5z"/>
	</g>
</g>
</svg>
