<?xml version="1.0" encoding="utf-8"?>
<!-- Generator: Adobe Illustrator 21.0.0, SVG Export Plug-In . SVG Version: 6.00 Build 0)  -->
<svg version="1.1" id="Слой_1" xmlns="http://www.w3.org/2000/svg" xmlns:xlink="http://www.w3.org/1999/xlink" x="0px" y="0px"
	 viewBox="0 0 962 950" style="enable-background:new 0 0 962 950;" xml:space="preserve">
<style type="text/css">
	.st0{fill-rule:evenodd;clip-rule:evenodd;fill:#070707;}
</style>
<path class="st0" d="M944,798c0,0-6.5,8.5-9,14s-1,9.5-1,11s-2,5-2,5l-4,1h-6l-3-1c0,0-7,7-12,12s-4,10-4,10v3l-4,3l-4,1l-8-3
	c0,0-4.5,4-7,5s-16,9-16,9l-3,2l1,6c0,0-1,7.5-5,7s-14-4-14-4l-8,3l-11,4l-6,3c0,0,3,4,1,6s-7,5.5-14,2s-10-5-10-5s6.5-1.5-3,0
	s-20,2-20,2l-8,2l-2,2c0,0,1,8-2,8s-19.5-6.5-22-7s-10-5-10-5s-15-1-23-2s-9,1-9,1l-3,4h-6c0,0-14-7-19-10s-16.5-5-21-9s-14-9-14-9
	l-12-7l-11-5l-5-4c0,0-3,0-14-2s-30.5-4-36-7s-23-11.5-27-17s-20.5-26-25-36s-12.5-39-14-51s-3.5-30.5-2-36s9.5-71.5,18-90
	s356-205,356-205s15.5,9.5,22,16s21,19,21,19l4,7l25,20c0,0,21,23,21,26s9,21,9,21l3,232l-10,24v14c0,0,1,8-1,9S944,798,944,798z"/>
</svg>
