<?xml version="1.0" encoding="utf-8"?>
<!-- Generator: Adobe Illustrator 21.0.0, SVG Export Plug-In . SVG Version: 6.00 Build 0)  -->
<svg version="1.1" id="Слой_1" xmlns="http://www.w3.org/2000/svg" xmlns:xlink="http://www.w3.org/1999/xlink" x="0px" y="0px"
	 viewBox="0 0 19 26" style="enable-background:new 0 0 19 26;" xml:space="preserve">
<style type="text/css">
	.st0{fill:#0A0A0A;}
</style>
<g>
	<g>
		<path class="st0" d="M9.5,5.1c-2.4,0-4.4,2-4.4,4.4c0,2.5,2,4.4,4.4,4.4c2.4,0,4.4-2,4.4-4.4C13.9,7.1,11.9,5.1,9.5,5.1z
			 M9.5,13.2c-2,0-3.6-1.6-3.6-3.7c0-2,1.6-3.7,3.6-3.7c2,0,3.6,1.6,3.6,3.7C13.1,11.6,11.5,13.2,9.5,13.2z M9.5,0
			C4.3,0,0,4.3,0,9.6c0,5.2,8.8,15.8,9.2,16.3C9.3,26,9.4,26,9.5,26c0.1,0,0.2-0.1,0.3-0.1C10.2,25.4,19,14.7,19,9.6
			C19,4.3,14.7,0,9.5,0z M9.5,25C7.9,23.1,0.8,13.9,0.8,9.6c0-4.9,3.9-8.8,8.7-8.8c4.8,0,8.7,3.9,8.7,8.8
			C18.2,13.9,11.1,23.1,9.5,25z"/>
	</g>
</g>
</svg>
