<?xml version="1.0" encoding="utf-8"?>
<!-- Generator: Adobe Illustrator 21.0.0, SVG Export Plug-In . SVG Version: 6.00 Build 0)  -->
<svg version="1.1" id="Слой_1" xmlns="http://www.w3.org/2000/svg" xmlns:xlink="http://www.w3.org/1999/xlink" x="0px" y="0px"
	 viewBox="0 0 960 950" style="enable-background:new 0 0 960 950;" xml:space="preserve">
<style type="text/css">
	.st0{fill-rule:evenodd;clip-rule:evenodd;}
</style>
<path class="st0" d="M892.5,753.5l-19-15c0,0-10.3-9.7-16-13s-9.3-2.3-14-6s-7-8-7-8s-10.8-7-17-12s-21-15-26-21s-10-10-10-10
	s1.8,3,0-2s-1.8-7.2-8-11s-9.8-9.4-13-11s-7-3-7-3s-1.2-6.4-11-21s-1.7-9.7-9-24s-27-61-27-61l-7-16c0,0-3-30.7-4-45
	s-4.7-34.7-16-52s-24-30.7-25-36s-8-10.3-11-13s-10-7-10-7l-8-3l-9-7l-4-1l-4,1l-5-1l-3-1l-2,1l-8-2l-5-3l-7-1l-3,2h-7l-3,1l-6,3
	l-2,2c0,0-7.8-3.8-14-8s-22-15-22-15s-7-4.8-9-6s-6-3-6-3s-5.3-11.5-7-16s1-8,1-8l3-7l3-7l1-10c0,0,2.5-0.5,5-1s7.8-1.5,8-5
	s2-11,2-11s0.8-4,3-8s6-20,6-20l-1-11c0,0,4.8-1.3,5-6s3.5-6.8,3-10s-1-10-1-10l-4-2l-2-5l3-4v-5l-1-4v-5l-2-6v-11l-2-11l-1-6l1-5
	c0,0,0.2-2,4-4s10.2-3.6,11-12s-0.7-19-3-24s-7.5-20.7-8-22s-5.7-7.8-7-10s-3-8.5-4-10s-4.5-5.5-9-8s-8.2-3.2-12-5s-8.2-5.8-12-8
	s-11.2-3.5-14-6s-4-3.8-11-7s-20.3-6.3-29-6s-10,0.3-18,1s-10.3-1.2-16,4s-9.7,8.8-13,11s-13.7,9.7-14,12s-4.3,6.5-6,9
	s-7.3,14.3-8,18c-0.7,3.7-2.7,16.8-3,17s-6.3,8.8-7,11s-2,9-2,9s-4,7-5,10s-2,4.7-4,12s-4.7,15.2-6,21s-5.5,14.2-6,20
	s-2.3,15.2,1,23s8,13,8,13s0.3,3,3,5s3.2,4.7,3,7s0,19.3,1,24s2,10,2,11s1.5,5,2,6s2,7,2,7s-0.2,7.7,0,9s3,4,5,7s10.7,23.3,13,28
	s76,135,76,135l59,69l101,110c0,0,22,33,31,46s12,13.5,14,18s4,11,7,13s7,13.8,9,18s8,10,10,11s10.3,17,14,19s7.8,6,11,8s9,8,9,8
	l11,2c0,0,17.3,9.8,18,10s9.5,2,11,5s14.5,5.5,24,6s17,0,17,0s12.5,9.3,14,11s4.8,16,5,17s3,22,3,22l5,34c0,0,1,7.5,2,8s4-1.3,5-2
	s7-5,7-5l2,10l3,9c0,0-0.3,6.5,0,9s1.5,12.5,2,14s6,0,6,0s1,3,1,5s-2,8.5-1,12s1.8,9.8,4,11s4.8,3.3,7,1s5-9,5-9l16-22l11-10l6-5
	c0,0,6.5-7.3,10-17s5-7,5-7l1,5l-1,6c0,0-8.3,13-11,17s-7,9-7,9l-3,5l1,4c0,0-2.8,2.3-1,4s4,5.3,13-3s19.5-22.8,22-27s4.8-8.8,6-14
	s3.8-24.3,3-34s-12.5-35.3-17-41s-4-17.7-6-23c-1.6-4.1-3.1-11.5-10.3-16.9c-2.1-1.6-5.6-4.5-7.7-7.1"/>
</svg>
